<svg xmlns="http://www.w3.org/2000/svg" width="280.71" height="360.57" viewBox="0 0 74.27 95.4" version="1.1" id="svg8">
    <g id="layer2" style="display:inline;opacity:.99" transform="translate(-66.33 -80)">
        <path id="path848" style="fill:#f2ebd6;fill-opacity:1;stroke:none;stroke-width:.999999px;stroke-linecap:butt;stroke-linejoin:miter;stroke-opacity:1" d="M250.71 408.57s103.22 46.48 102.5 105.05c-4.24 44.13-43.1 74.35-71.45 104.69 80 87.14 223.24 28.12 249.67-31.17 0 0-85-19.3-92.14-82.17-7.14-62.85 62.85-122.83 62.85-122.83-60.12-32.81-154.7-40.95-251.43 26.43z" transform="scale(.26458)"/>
        <path id="path848-1-8" style="display:inline;opacity:1;fill:#f05234;fill-opacity:1;stroke:none;stroke-width:.264583px;stroke-linecap:butt;stroke-linejoin:miter;stroke-opacity:1" d="M132.86 101.1c-9.8-7.85-42.55-13.19-66.53 7 28.43-5.29 32.67-1.17 39.57.24 3.76-3.2 9.02-7.76 26.96-7.23z"/>
        <path style="fill:#682317;fill-opacity:1;stroke:none;stroke-width:.407131px;stroke-linecap:butt;stroke-linejoin:miter;stroke-opacity:1" d="M99.76 101.89l-1.22-18.13 4.72-3.75 2.03 3.38.99 3.96-.76 13.9z" id="path894"/>
        <path style="fill:#d4482e;fill-opacity:1;stroke:none;stroke-width:.316515;stroke-linecap:butt;stroke-linejoin:miter;stroke-miterlimit:4;stroke-dasharray:none;stroke-opacity:1" d="M90.68 99.48c14.24 6.85 19.27 1.35 23.09-3.69 0 0-6.48 9-23.09 3.69z" id="path862"/>
        <path id="path848-1" style="display:inline;opacity:1;fill:#f05234;fill-opacity:1;stroke:none;stroke-width:.264583px;stroke-linecap:butt;stroke-linejoin:miter;stroke-opacity:1" d="M74.55 163.6c13.53 18.88 55.12 14.4 66.06-8.25-10.85 6.04-10.65 9.96-32 11.19-9.63 3.3-21.41 3.54-34.06-2.95z"/>
    </g>
</svg>

