<?xml version="1.0" encoding="UTF-8" standalone="no"?>
<svg
   xmlns:dc="http://purl.org/dc/elements/1.1/"
   xmlns:cc="http://creativecommons.org/ns#"
   xmlns:rdf="http://www.w3.org/1999/02/22-rdf-syntax-ns#"
   xmlns:svg="http://www.w3.org/2000/svg"
   xmlns="http://www.w3.org/2000/svg"
   width="138.69592mm"
   height="76.182564mm"
   viewBox="0 0 138.69592 76.18256"
   version="1.1"
   id="svg8">
  <defs
     id="defs2" />
  <metadata
     id="metadata5">
    <rdf:RDF>
      <cc:Work
         rdf:about="">
        <dc:format>image/svg+xml</dc:format>
        <dc:type
           rdf:resource="http://purl.org/dc/dcmitype/StillImage" />
        <dc:title></dc:title>
      </cc:Work>
    </rdf:RDF>
  </metadata>
  <g
     id="layer1"
     transform="translate(-38.541317,-95.120808)">
    <rect
       style="fill:#3d2604;fill-opacity:1;stroke:none;stroke-width:0"
       id="rect892"
       width="122.73034"
       height="51.05862"
       x="47.089886"
       y="120.24475" />
    <ellipse
       style="fill:#ab2727;fill-opacity:1;stroke:none;stroke-width:0;stroke-miterlimit:4;stroke-dasharray:none"
       id="path914"
       cx="68.149719"
       cy="115.73643"
       rx="8.9861155"
       ry="6.523067" />
    <path
       id="path919"
       style="fill:#0c7d11;fill-opacity:1;stroke:none;stroke-width:0;stroke-miterlimit:4;stroke-dasharray:none"
       d="m 124.74286,107.76598 c -1.45091,-0.0251 -2.91972,0.13416 -4.35632,0.5643 -0.29202,1.22549 -0.90915,3.47114 -0.54053,4.72685 5.57539,0 9.1577,0.0638 13.44362,0.1049 0.0804,0.14686 0.24334,0.33691 1.19837,0.75551 0.36183,-0.10891 1.36363,-0.39068 2.57763,-0.73277 0.94751,0.004 1.79958,0.0114 2.87992,0.0114 0,-0.93484 -0.74685,0.41833 -1.17822,-0.493 2.54466,-0.72273 5.69191,-1.63222 8.38864,-2.48977 -0.45035,-0.3764 -1.22197,-0.91616 -2.0836,-1.1746 -2.99321,0.95183 -5.06081,1.58758 -7.3148,2.2872 -2.24177,-0.70119 -7.4974,-3.46447 -13.01471,-3.55999 z" />
    <ellipse
       style="fill:#681f5f;fill-opacity:1;stroke:none;stroke-width:0;stroke-miterlimit:4;stroke-dasharray:none"
       id="path921"
       cx="99.046349"
       cy="111.4677"
       rx="4.8665729"
       ry="2.9199438" />
    <path
       id="path912"
       style="fill:#813b0b;fill-opacity:1;stroke:none;stroke-width:0;stroke-linecap:butt;stroke-linejoin:miter;stroke-miterlimit:4;stroke-dasharray:none;stroke-opacity:1"
       d="m 441.88086,402.28906 c -13.2383,-0.27871 -20.48427,11.42748 -40.55078,15.88672 -26.75532,5.94561 -30.7185,2.97211 -47.56446,0.99024 -16.84593,-1.98188 -35.67444,-0.98969 -48.55664,0.99218 -12.88219,1.98187 -55.49186,1.98085 -61.4375,6.93555 -5.94562,4.9547 -16.84631,-7.92633 -29.72851,-9.9082 -12.88219,-1.98187 -20.81077,2.97287 -28.73828,10.90039 -4.61328,4.61327 -5.52765,13.23624 -5.49219,19.65429 -9.8e-4,2e-5 -0.43359,0.006 -0.43359,0.006 l -2.80274,13.31446 c 0,0 4.20448,21.02027 9.10938,30.83007 4.90489,9.80977 20.32031,14.01368 20.32031,14.01368 l 25.22461,-2.10157 19.61914,-7.70703 53.95508,-7.70898 51.15039,7.00781 c 0,0 13.31238,-8.3e-4 18.91797,-7.00781 5.60559,-7.00698 46.94756,-10.50923 56.05664,-12.61133 3.73521,-0.86197 7.14019,-3.2454 11.85937,-5.04492 l 32.53125,1.8457 c 0.38622,0.13307 0.7601,0.2557 1.1543,0.39649 29.42937,10.51048 34.33567,13.31191 68.66992,18.21679 34.33425,4.90489 33.63322,6.30766 60.25977,4.90625 14.70644,-0.77401 20.85442,-7.32257 23.53711,-14.79882 l 5.25976,0.29882 c 0,0 -6.3e-4,-42.61082 -12.88281,-51.52929 -12.88222,-8.91844 -31.71038,-0.99062 -54.50195,-5.94532 -22.79161,-4.95469 -23.78321,-4.95507 -23.78321,-4.95507 0,0 -23.78112,0.99201 -37.65429,3.96484 -13.8731,2.97279 -21.80201,-1.98237 -47.56641,-15.85547 -6.44109,-3.46828 -11.51887,-4.89342 -15.93164,-4.98633 z"
       transform="scale(0.26458333)" />
    <path
       id="path949"
       style="opacity:1;fill:#b17414;fill-opacity:1;stroke:none;stroke-width:0"
       d="m 146.6582,359.51172 v 45.98047 h 522.22461 v -45.98047 z m -0.99023,80.5957 v 45.98047 h 522.22461 v -45.98047 z m 0.99023,80.59766 v 45.98047 h 522.22461 v -45.98047 z m 0.99219,80.5957 v 45.98047 h 522.22266 v -45.98047 z"
       transform="scale(0.26458333)" />
    <path
       id="path931"
       style="fill:#cb8a22;fill-opacity:1;stroke:none;stroke-width:0"
       d="m 44.309583,101.20354 v 64.49787 h 6.292123 v -64.49787 z m 119.818527,0.52452 v 64.49787 h 6.29264 v -64.49787 z" />
  </g>
</svg>
