<svg xmlns="http://www.w3.org/2000/svg" width="336.5" height="263.53" viewBox="0 0 89.03 69.73" version="1.1" id="svg8">
    <defs id="defs2">
        <rect x="54.27" y="38.26" width="115.89" height="18.88" id="rect900"/>
        <rect x="284.73" y="43" width="68.05" height="17.65" id="rect894"/>
    </defs>
    <g id="layer1" transform="translate(-50.4 -78.41)" style="display:inline">
        <rect style="fill:#3f3321;fill-opacity:1;stroke:none;stroke-width:0" id="rect892" width="78.78" height="44.71" x="55.89" y="99.77"/>
        <path id="path914" style="fill:#ab3b3b;fill-opacity:1;stroke:none;stroke-width:0;stroke-miterlimit:4;stroke-dasharray:none" d="M78.4 97.06c.48 3.43-4.78 6.49-7.77 7.22-3 .73-5.97-1.32-6.78-4.66-.8-3.34.93-5.28 3.83-6.38 2.91-1.1 8.43-1.37 9.55 1.85"/>
        <ellipse style="fill:#684164;fill-opacity:1;stroke:none;stroke-width:0;stroke-miterlimit:4;stroke-dasharray:none" id="path921" cx="89.7" cy="95.14" rx="3.12" ry="2.92"/>
        <ellipse style="display:inline;fill:#ed9a41;fill-opacity:1;stroke:none;stroke-width:0;stroke-miterlimit:4;stroke-dasharray:none" id="path921-0" cx="149.98" cy="47.82" rx="4.93" ry="2.92" transform="rotate(20.45)"/>
        <path id="path912" style="fill:#864e28;fill-opacity:1;stroke:none;stroke-width:0;stroke-linecap:butt;stroke-linejoin:miter;stroke-miterlimit:4;stroke-dasharray:none;stroke-opacity:1" d="M98.23 91.62c-2.25-.07-.73 1.47-4.14 2.55-4.54 1.45-7.81-.12-8.73.24-2.19.86-6.52 1.47-8.32.57-2-1-7.98-1.06-8.99.15-1 1.2-3.06.99-5.24.5-2.2-.48-2.88.22-4.23 2.14-.78 1.12-2.12 2.03-2.11 3.59h-.08l-.47 3.24s.71 5.1 1.55 7.49c.83 2.38 3.45 3.4 3.45 3.4l4.28-.5 3.33-1.88 9.17-1.87 8.68 1.7s2.27 0 3.22-1.7c.95-1.7 7.97-2.56 9.52-3.07.63-.2 1.21-.79 2.01-1.22l5.53.45.2.1c5 2.55 5.83 3.23 11.66 4.42 5.83 1.2 5.7 1.53 10.23 1.2 2.5-.2 3.54-1.79 4-3.6l.9.07s-2.76-8.83-4.94-11c-2.2-2.16-2.64-1.77-6.51-2.97a59.18 59.18 0 0 0-4.04-1.2s-3.91-.55-6.27.17c-2.35.72-3.83.3-8.2-3.07-1.1-.84-1.7.26-2.45.23z"/>
        <path id="path919" style="fill:#377d39;fill-opacity:1;stroke:none;stroke-width:0;stroke-miterlimit:4;stroke-dasharray:none" d="M106.73 94.8c-.86.37-1.06 2.93-1.73 3.7.33 1.2.3 1.37 1.03 2.42 3.26-1.46 5.39-2.34 7.91-3.43.11.11.28.25 1.02.38.16-.2.63-.72 1.2-1.35.56-.24 1.7-.55 2.32-.84-.61-.13-.59.12-1.21-.6 1.73-1.14 2.78-4.06 4-5.55-.2-.11-.24-.1-.74.12s-1.25 1.37-2.3 2.12c-1.36 1.66-2.45 1.59-2.88 2.24-1.6-.05-2.53-.04-5.8 1.32z"/>
        <path style="display:inline;fill:#d0b384;fill-opacity:1;stroke:none;stroke-width:.463594px;stroke-linecap:butt;stroke-linejoin:miter;stroke-opacity:1" d="M78.88 84.02l8.7 22.55L83 89.7z" id="path3200-5"/>
        <path style="fill:#d0b384;fill-opacity:1;stroke:none;stroke-width:.463594px;stroke-linecap:butt;stroke-linejoin:miter;stroke-opacity:1" d="M72.35 78.41l19.91 33.8-15.34-28.88z" id="path3200"/>
        <path style="display:inline;fill:#d0b384;fill-opacity:1;stroke:none;stroke-width:.301182px;stroke-linecap:butt;stroke-linejoin:miter;stroke-opacity:1" d="M76.16 91.82l8.2 5.78-8.5-4.5z" id="path3200-2"/>
        <path id="path912-7" style="display:inline;fill:#6a4226;fill-opacity:1;stroke:none;stroke-width:0;stroke-linecap:butt;stroke-linejoin:miter;stroke-miterlimit:4;stroke-dasharray:none;stroke-opacity:1" d="M109.12 114.45c-1.85.02-9.87-.84-12.68-1.12-3.75-.37-4.6.77-5.35.68-1.8-.22-8.06-.28-9.54-.05-1.66.25-8.02-.23-8.85-.54-.83-.3-10 2.84-11.8 2.96-1.8.13-.61-2.65-1.73-3.14-.64-.29 2.24-13.6 2.25-14h-.06l-.4-.82s.69-.67 1.38-1.28c.68-.61 3.21.14 3.21.14l3.6-.71 2.22-.34 7.56.48 7.17-.44s3.53-.46 4.32-.02c.78.43 5.1-1.1 6.37-.98.52.06 2.76 1.22 2.59 1.99l3.44.44.16-.03c4.13-.65 4.81-.83 9.62-1.14 4.81-.3 4.72-.39 8.45-.3 2.06.05 2.92.45 3.3.92l.73-.02s5.33 2.27 3.53 2.83c-1.8.56 3.48 13.15.29 13.46-3.2.31-3.34.31-3.34.31s-3.22.14-5.16-.04c-1.95-.19-6.6-2.92-6.78.79-.25 5.22-6.3-.07-6.92-.06z"/>
        <path id="path949" style="opacity:1;fill:#d09d4c;fill-opacity:1;stroke:none;stroke-width:0" d="M50.4 98.61v12.17h88.7V98.6zm.17 18.68v12.17h88.7v-12.17zm.17 18.68v12.16h88.7v-12.16z"/>
        <path id="path931" style="fill:#b78c47;fill-opacity:1;stroke:none;stroke-width:0" d="M54.1 103.76v38.45h5.64v-38.45zm75.34-.17v38.45h5.62V103.6z"/>
        <path id="path934-6" style="display:inline;fill:#e7c66e;fill-opacity:.818898;stroke:none;stroke-width:.22231px;stroke-linecap:butt;stroke-linejoin:miter;stroke-opacity:1" d="M129.96 112.06v-7.58l4.16-.13-3.7.98zm-75.3 2.28v-9.7l4.16-.13-3.7.98zm-3.42-5.27v-9.7l86.52-.01-85.6 1.19z"/>
        <path style="fill:#dca1a2;fill-opacity:1;stroke:none;stroke-width:.264583px;stroke-linecap:butt;stroke-linejoin:miter;stroke-opacity:1" d="M99.04 92.93c.2.24 1.32.28 1.58.2.27-.1.98-4.33-2.43-4.33-3.4 0 .21-1.58-.66-2.3-.8-.66-2.18.81-2.31 2-.13 1.17 1.69 1.52 3.18 1.6 1.54.1.5 2.68.64 2.83z" id="path3232"/>
    </g>
</svg>

