<?xml version="1.0" encoding="UTF-8" standalone="no"?>
<svg
   xmlns:dc="http://purl.org/dc/elements/1.1/"
   xmlns:cc="http://creativecommons.org/ns#"
   xmlns:rdf="http://www.w3.org/1999/02/22-rdf-syntax-ns#"
   xmlns:svg="http://www.w3.org/2000/svg"
   xmlns="http://www.w3.org/2000/svg"
   xmlns:sodipodi="http://sodipodi.sourceforge.net/DTD/sodipodi-0.dtd"
   xmlns:inkscape="http://www.inkscape.org/namespaces/inkscape"
   width="89.032364mm"
   height="69.725136mm"
   viewBox="0 0 89.032355 69.725131"
   version="1.1"
   id="svg8"
   inkscape:version="1.0.1 (3bc2e813f5, 2020-09-07)"
   sodipodi:docname="compost.svg">
  <defs
     id="defs2">
    <rect
       x="54.272457"
       y="38.259476"
       width="115.88606"
       height="18.877367"
       id="rect900" />
    <rect
       x="284.73361"
       y="42.998447"
       width="68.047432"
       height="17.648687"
       id="rect894" />
    <inkscape:perspective
       sodipodi:type="inkscape:persp3d"
       inkscape:vp_x="-3.3370778 : -4.6175597 : 1"
       inkscape:vp_y="0 : 999.9999 : 0"
       inkscape:vp_z="220.75277 : -7.5838507 : 1"
       inkscape:persp3d-origin="105 : -128.27484 : 1"
       id="perspective848" />
  </defs>
  <sodipodi:namedview
     id="base"
     pagecolor="#ffffff"
     bordercolor="#666666"
     borderopacity="1.0"
     inkscape:pageopacity="1"
     inkscape:pageshadow="2"
     inkscape:zoom="2.01829"
     inkscape:cx="125.95374"
     inkscape:cy="184.50459"
     inkscape:document-units="mm"
     inkscape:current-layer="layer1"
     inkscape:document-rotation="0"
     showgrid="false"
     inkscape:snap-global="false"
     inkscape:window-width="1920"
     inkscape:window-height="1051"
     inkscape:window-x="-9"
     inkscape:window-y="-9"
     inkscape:window-maximized="1"
     fit-margin-top="0"
     fit-margin-left="0"
     fit-margin-right="0"
     fit-margin-bottom="0"
     lock-margins="true"
     inkscape:pagecheckerboard="false"
     showguides="true" />
  <metadata
     id="metadata5">
    <rdf:RDF>
      <cc:Work
         rdf:about="">
        <dc:format>image/svg+xml</dc:format>
        <dc:type
           rdf:resource="http://purl.org/dc/dcmitype/StillImage" />
        <dc:title></dc:title>
      </cc:Work>
    </rdf:RDF>
  </metadata>
  <g
     inkscape:label="Compost"
     inkscape:groupmode="layer"
     id="layer1"
     transform="translate(-50.406485,-78.409628)"
     style="display:inline">
    <rect
       style="fill:#3f3321;fill-opacity:1;stroke:none;stroke-width:0"
       id="rect892"
       width="78.783646"
       height="44.708542"
       x="55.894024"
       y="99.765648" />
    <path
       id="path914"
       style="fill:#ab3b3b;fill-opacity:1;stroke:none;stroke-width:0;stroke-miterlimit:4;stroke-dasharray:none"
       d="m 78.400524,97.064915 c 0.480728,3.421315 -4.778084,6.485415 -7.77283,7.214995 -2.994746,0.72958 -5.97146,-1.31527 -6.779153,-4.65693 -0.807693,-3.341658 0.928089,-5.284917 3.834652,-6.379336 2.906562,-1.094418 8.426431,-1.375351 9.551462,1.846819"
       sodipodi:nodetypes="csssc" />
    <ellipse
       style="fill:#684164;fill-opacity:1;stroke:none;stroke-width:0;stroke-miterlimit:4;stroke-dasharray:none"
       id="path921"
       cx="89.704987"
       cy="95.14196"
       rx="3.1239741"
       ry="2.9199438" />
    <ellipse
       style="display:inline;fill:#ed9a41;fill-opacity:1;stroke:none;stroke-width:0;stroke-miterlimit:4;stroke-dasharray:none"
       id="path921-0"
       cx="149.9808"
       cy="47.823448"
       rx="4.9265003"
       ry="2.9199438"
       transform="rotate(20.453171)" />
    <path
       id="path912"
       style="fill:#864e28;fill-opacity:1;stroke:none;stroke-width:0;stroke-linecap:butt;stroke-linejoin:miter;stroke-miterlimit:4;stroke-dasharray:none;stroke-opacity:1"
       d="m 98.225301,91.620686 c -2.248427,-0.06771 -0.726163,1.466808 -4.134308,2.550736 -4.544194,1.44523 -7.813981,-0.12038 -8.733934,0.240703 -2.186605,0.858245 -6.517867,1.463642 -8.312536,0.56891 -2.004993,-0.999589 -7.982861,-1.058846 -8.992684,0.145518 -1.00982,1.204362 -3.058694,0.989155 -5.24664,0.507412 -2.187946,-0.481743 -2.880133,0.211657 -4.226562,2.138639 -0.783531,1.121368 -2.116792,2.025139 -2.11077,3.585206 -1.66e-4,1e-5 -0.07364,0.002 -0.07364,0.002 l -0.476025,3.23643 c 0,0 0.7141,5.10953 1.547162,7.49406 0.833059,2.38452 3.451254,3.40639 3.451254,3.40639 l 4.284214,-0.51084 3.332166,-1.8734 9.163873,-1.87386 8.687517,1.70342 c 0,0 2.261006,-1.9e-4 3.213075,-1.70342 0.952069,-1.70324 7.973701,-2.55455 9.520809,-3.06552 0.634397,-0.20953 1.212718,-0.78888 2.014228,-1.2263 l 5.5252,0.44864 c 0.0656,0.0323 0.12909,0.0622 0.19604,0.0964 4.99836,2.55485 5.83166,3.23581 11.66308,4.42807 5.83142,1.19226 5.71235,1.53324 10.23468,1.19259 2.49777,-0.18814 3.54197,-1.77994 3.9976,-3.59724 l 0.89333,0.0727 c 0,0 -2.74868,-8.82476 -4.93663,-10.992623 -2.18795,-2.167848 -2.63719,-1.773702 -6.50817,-2.978067 -3.87099,-1.204361 -4.0394,-1.204453 -4.0394,-1.204453 0,0 -3.90796,-0.545425 -6.26422,0.177196 -2.35624,0.722609 -3.834,0.304694 -8.20988,-3.067509 -1.09398,-0.843052 -1.69421,0.252549 -2.44369,0.229967 z"
       sodipodi:nodetypes="csssssscccscccccsscccssccsscsscc" />
    <path
       id="path919"
       style="fill:#377d39;fill-opacity:1;stroke:none;stroke-width:0;stroke-miterlimit:4;stroke-dasharray:none"
       d="m 106.73204,94.808847 c -0.8603,0.357705 -1.06585,2.920311 -1.73174,3.689754 0.32971,1.195087 0.29595,1.374602 1.02506,2.423959 3.26649,-1.462577 5.39136,-2.344094 7.91916,-3.4309 0.10711,0.112947 0.28026,0.243654 1.01085,0.375169 0.16747,-0.194316 0.63926,-0.714282 1.21073,-1.344973 0.55675,-0.244905 1.68468,-0.554372 2.31762,-0.837774 -0.61377,-0.134814 -0.59104,0.114234 -1.21619,-0.60436 1.7372,-1.138055 2.7788,-4.060694 4.00831,-5.550797 -0.20884,-0.112695 -0.25063,-0.09846 -0.74441,0.121245 -0.4938,0.219674 -1.25542,1.365482 -2.29727,2.121294 -1.36468,1.653927 -2.45368,1.586712 -2.88285,2.240729 -1.59995,-0.05188 -2.52926,-0.03912 -5.80076,1.321052 z"
       sodipodi:nodetypes="cccccccccscccc" />
    <path
       style="display:inline;fill:#d0b384;fill-opacity:1;stroke:none;stroke-width:0.463594px;stroke-linecap:butt;stroke-linejoin:miter;stroke-opacity:1"
       d="M 78.878074,84.016755 87.570673,106.56565 83.014926,89.697456 Z"
       id="path3200-5"
       sodipodi:nodetypes="cccc" />
    <path
       style="fill:#d0b384;fill-opacity:1;stroke:none;stroke-width:0.463594px;stroke-linecap:butt;stroke-linejoin:miter;stroke-opacity:1"
       d="M 72.346943,78.409628 92.261226,112.20297 76.922245,83.330328 Z"
       id="path3200"
       sodipodi:nodetypes="cccc" />
    <path
       style="display:inline;fill:#d0b384;fill-opacity:1;stroke:none;stroke-width:0.301182px;stroke-linecap:butt;stroke-linejoin:miter;stroke-opacity:1"
       d="m 76.156748,91.815829 8.194242,5.783325 -8.496926,-4.507682 z"
       id="path3200-2"
       sodipodi:nodetypes="cccc" />
    <path
       id="path912-7"
       style="display:inline;fill:#6a4226;fill-opacity:1;stroke:none;stroke-width:0;stroke-linecap:butt;stroke-linejoin:miter;stroke-miterlimit:4;stroke-dasharray:none;stroke-opacity:1"
       d="m 109.12096,114.44984 c -1.85473,0.0174 -9.868676,-0.84045 -12.680045,-1.11901 -3.748485,-0.37141 -4.591792,0.77248 -5.350657,0.67978 -1.803722,-0.22056 -8.064766,-0.28345 -9.545182,-0.0535 -1.653912,0.25688 -8.014061,-0.22489 -8.847061,-0.53442 -0.832997,-0.3095 -9.992952,2.8383 -11.797781,2.96213 -1.804829,0.1238 -0.614576,-2.64991 -1.72524,-3.14511 -0.646332,-0.28818 2.239821,-13.590659 2.244789,-13.99158 -1.37e-4,0 -0.06075,-5.19e-4 -0.06075,-5.19e-4 l -0.392671,-0.831726 c 0,0 0.681755,-0.664209 1.368945,-1.277011 0.687187,-0.612793 3.217713,0.144259 3.217713,0.144259 l 3.594921,-0.717933 2.22432,-0.337882 7.559245,0.481565 7.166304,-0.437761 c 0,0 3.53363,-0.463434 4.318989,-0.02572 0.785359,0.437711 5.094333,-1.104747 6.370537,-0.973441 0.523314,0.0538 2.761608,1.222407 2.588495,1.98369 l 3.445349,0.440888 c 0.0541,-0.0078 0.10649,-0.01604 0.16171,-0.02475 4.12314,-0.656568 4.81052,-0.83156 9.62085,-1.137966 4.8103,-0.306397 4.7121,-0.394025 8.44255,-0.306485 2.06039,0.04832 2.92175,0.457423 3.29759,0.924452 l 0.7369,-0.01868 c 0,0 5.33375,2.26787 3.52892,2.82499 -1.80482,0.55711 3.47909,13.15525 0.28594,13.46476 -3.19316,0.30951 -3.3321,0.30953 -3.3321,0.30953 0,0 -3.22365,0.14017 -5.16733,-0.0455 -1.94364,-0.1857 -6.59228,-2.91955 -6.77229,0.78831 -0.25354,5.22228 -6.31046,-0.0648 -6.92871,-0.0591 z"
       sodipodi:nodetypes="csssssscccscccccsscccssccsscsscc" />
    <path
       id="path949"
       style="opacity:1;fill:#d09d4c;fill-opacity:1;stroke:none;stroke-width:0"
       d="M 50.406485,98.611707 V 110.77735 H 139.10248 V 98.611707 Z m 0.168183,18.678943 v 12.16566 h 88.695992 v -12.16566 z m 0.168516,18.67845 v 12.16566 H 139.43885 V 135.9691 Z"
       sodipodi:nodetypes="ccccccccccccccc" />
    <path
       id="path931"
       style="fill:#b78c47;fill-opacity:1;stroke:none;stroke-width:0"
       d="m 54.109278,103.76349 v 38.44819 h 5.62657 v -38.44819 z m 75.326992,-0.16916 v 38.44819 h 5.6269 v -38.44819 z"
       sodipodi:nodetypes="cccccccccc" />
    <path
       id="path934-6"
       style="display:inline;fill:#e7c66e;fill-opacity:0.818898;stroke:none;stroke-width:0.22231px;stroke-linecap:butt;stroke-linejoin:miter;stroke-opacity:1"
       d="m 129.96081,112.06473 v -7.5842 l 4.15874,-0.13109 -3.69599,0.9832 z m -75.297051,2.27504 v -9.70087 l 4.158739,-0.13109 -3.695991,0.9832 z m -3.427715,-5.2694 v -9.700864 l 86.526966,-0.01 -85.601472,1.189424 z"
       sodipodi:nodetypes="ccccccccccccccc" />
    <path
       style="fill:#dca1a2;fill-opacity:1;stroke:none;stroke-width:0.264583px;stroke-linecap:butt;stroke-linejoin:miter;stroke-opacity:1"
       d="m 99.041923,92.930427 c 0.20492,0.236374 1.318037,0.279642 1.573117,0.196639 0.27872,-0.0907 0.98319,-4.326063 -2.425222,-4.326063 -3.408413,0 0.210105,-1.580248 -0.655463,-2.294124 -0.803144,-0.662393 -2.186206,0.806096 -2.317299,1.985931 -0.131094,1.179836 1.688985,1.527448 3.184967,1.611852 1.54033,0.08691 0.50734,2.67286 0.6399,2.825765 z"
       id="path3232"
       sodipodi:nodetypes="sssssss" />
  </g>
</svg>
