<?xml version="1.0" encoding="UTF-8" standalone="no"?>
<svg
   xmlns:dc="http://purl.org/dc/elements/1.1/"
   xmlns:cc="http://creativecommons.org/ns#"
   xmlns:rdf="http://www.w3.org/1999/02/22-rdf-syntax-ns#"
   xmlns:svg="http://www.w3.org/2000/svg"
   xmlns="http://www.w3.org/2000/svg"
   xmlns:sodipodi="http://sodipodi.sourceforge.net/DTD/sodipodi-0.dtd"
   xmlns:inkscape="http://www.inkscape.org/namespaces/inkscape"
   width="402.24"
   height="515.09"
   viewBox="0 0 106.43 136.28"
   version="1.1"
   id="svg8"
   sodipodi:docname="trash_can_black.svg"
   inkscape:version="1.0.1 (3bc2e813f5, 2020-09-07)">
  <metadata
     id="metadata1455">
    <rdf:RDF>
      <cc:Work
         rdf:about="">
        <dc:format>image/svg+xml</dc:format>
        <dc:type
           rdf:resource="http://purl.org/dc/dcmitype/StillImage" />
        <dc:title></dc:title>
      </cc:Work>
    </rdf:RDF>
  </metadata>
  <sodipodi:namedview
     pagecolor="#ffffff"
     bordercolor="#666666"
     borderopacity="1"
     objecttolerance="10"
     gridtolerance="10"
     guidetolerance="10"
     inkscape:pageopacity="0"
     inkscape:pageshadow="2"
     inkscape:window-width="1920"
     inkscape:window-height="1051"
     id="namedview1453"
     showgrid="false"
     inkscape:zoom="0.60402448"
     inkscape:cx="-583.22205"
     inkscape:cy="-68.584827"
     inkscape:window-x="-9"
     inkscape:window-y="-9"
     inkscape:window-maximized="1"
     inkscape:current-layer="layer3" />
  <defs
     id="defs2">
    <rect
       x="54.27"
       y="38.26"
       width="115.89"
       height="18.88"
       id="rect900" />
    <rect
       x="284.73"
       y="43"
       width="68.05"
       height="17.65"
       id="rect894" />
  </defs>
  <g
     inkscape:groupmode="layer"
     id="layer3"
     inkscape:label="Layer 1"
     style="display:inline">
    <g
       id="g904"
       style="display:inline;opacity:1"
       transform="translate(-467.77,-0.67)">
      <path
         style="display:inline;opacity:1;mix-blend-mode:normal;fill:#545454;fill-opacity:1;stroke:none;stroke-width:0.434263px;stroke-linecap:butt;stroke-linejoin:miter;stroke-opacity:1"
         d="m 490.54,127.44 c -2.49,0 -6.02,0.94 -6.13,-4.44 -0.1,-5.38 -4.52,-81.05 -4.52,-81.05 l -2.51,-4.47 -2.99,-0.83 -1.05,-13.2 -0.1,-8.28 88.2,-1.93 9.28,-3.84 c 0,0 5.38,0.64 1.93,6.02 -3.44,5.38 -6.56,10.44 -15.6,14.74 -0.96,19.37 -6.15,93.48 -6.15,93.48 0,0 0.65,3.8 -3.34,3.8 z"
         id="path886" />
      <path
         style="display:inline;opacity:1;mix-blend-mode:normal;fill:#3b3b3b;fill-opacity:1;stroke:none;stroke-width:0.485458px;stroke-linecap:butt;stroke-linejoin:miter;stroke-opacity:1"
         d="m 467.77,26.33 0.1,-12.66 102.69,0.59 -2.42,5.78 c 0,0 -66.08,0.83 -74.56,0.92 -6.59,0.07 -8.36,5.54 -12.73,5.54 -3.72,0 -10.77,-0.15 -13.08,-0.17 z"
         id="path888" />
      <path
         id="path890"
         style="display:inline;opacity:1;mix-blend-mode:normal;fill:#545454;fill-opacity:1;stroke:none;stroke-width:0.484445px;stroke-linecap:butt;stroke-linejoin:miter;stroke-opacity:1"
         d="m 494.54,0.67 c -2.33,0.13 -16,2.34 -18.1,2.72 -2.11,0.4 -2.45,2.47 -2.45,2.47 l -0.62,8.13 80.57,-0.02 c 0,0 10.03,2.26 15.01,3.5 5.78,1.42 7.5,-10.44 1.46,-10.97 -2.08,-0.18 -71.1,-5.57 -75.87,-5.83 z m -1.28,4.63 c 2.73,-0.4 2.88,4.25 0.14,4.63 a 817.2,817.2 0 0 1 -13.1,1.69 c -1.97,0.23 -2.25,-4.21 0,-4.54 4.35,-0.36 8.58,-1.2 12.96,-1.78 z" />
      <ellipse
         style="display:inline;opacity:1;mix-blend-mode:normal;fill:#363a41;fill-opacity:1;stroke:none;stroke-width:0;stroke-opacity:1"
         id="ellipse892"
         cx="544.46002"
         cy="121.56"
         rx="15.52"
         ry="15.4" />
      <ellipse
         style="display:inline;opacity:1;mix-blend-mode:normal;fill:#363a41;fill-opacity:1;stroke:none;stroke-width:0;stroke-opacity:1"
         id="ellipse894"
         cx="567.25"
         cy="12.84"
         rx="2.1600001"
         ry="2.1400001" />
      <path
         style="fill:#fff0f0;fill-opacity:1;stroke:none;stroke-width:0.103907;stroke-linecap:butt;stroke-linejoin:miter;stroke-miterlimit:4;stroke-dasharray:none;stroke-opacity:1"
         d="m 469.43,24.95 0.03,-9.57 13.48,0.13 -12.3,1.24 z"
         id="path896" />
      <path
         style="fill:#ffffff;fill-opacity:1;stroke:none;stroke-width:0.265;stroke-linecap:butt;stroke-linejoin:miter;stroke-miterlimit:4;stroke-dasharray:none;stroke-opacity:1"
         d="m 474.41,13.15 0.46,-6.88 c 0,0 0.1,-1.52 1.48,-1.85 1.37,-0.33 17.86,-2.75 17.86,-2.75 l 26.27,1.74 -26.32,-0.69 -17.36,2.9 c 0,0 -0.76,0.05 -0.83,1.1 -0.06,1.05 -1.56,6.43 -1.56,6.43 z"
         id="path898" />
      <path
         style="fill:#ffffff;fill-opacity:1;stroke:none;stroke-width:0.264583px;stroke-linecap:butt;stroke-linejoin:miter;stroke-opacity:1"
         d="m 530.32,122.47 c 0,0 0.54,-20.84 22.11,-13.1 -21.07,-5.75 -22.11,13.1 -22.11,13.1 z"
         id="path900" />
      <path
         style="display:inline;fill:#ffffff;fill-opacity:1;stroke:none;stroke-width:0.264583px;stroke-linecap:butt;stroke-linejoin:miter;stroke-opacity:1"
         d="m 565.65,15.02 c 2.92,0.9 4.17,-0.6 4.11,-3 1.38,2.96 -1.86,4.98 -4.1,3 z"
         id="path902" />
    </g>
  </g>
</svg>
