<svg xmlns="http://www.w3.org/2000/svg" width="402.24" height="515.09" viewBox="0 0 106.43 136.28" version="1.1" id="svg8">
    <defs id="defs2">
        <rect x="54.27" y="38.26" width="115.89" height="18.88" id="rect900"/>
        <rect x="284.73" y="43" width="68.05" height="17.65" id="rect894"/>
    </defs>
    <g id="layer3" style="display:inline">
        <g id="g904" style="display:inline;opacity:1" transform="translate(-467.77 -.67)">
            <path style="display:inline;opacity:1;mix-blend-mode:normal;fill:#545454;fill-opacity:1;stroke:none;stroke-width:.434263px;stroke-linecap:butt;stroke-linejoin:miter;stroke-opacity:1" d="M490.54 127.44c-2.49 0-6.02.94-6.13-4.44-.1-5.38-4.52-81.05-4.52-81.05l-2.51-4.47-2.99-.83-1.05-13.2-.1-8.28 88.2-1.93 9.28-3.84s5.38.64 1.93 6.02c-3.44 5.38-6.56 10.44-15.6 14.74-.96 19.37-6.15 93.48-6.15 93.48s.65 3.8-3.34 3.8z" id="path886"/>
            <path style="display:inline;opacity:1;mix-blend-mode:normal;fill:#3b3b3b;fill-opacity:1;stroke:none;stroke-width:.485458px;stroke-linecap:butt;stroke-linejoin:miter;stroke-opacity:1" d="M467.77 26.33l.1-12.66 102.69.59-2.42 5.78s-66.08.83-74.56.92c-6.59.07-8.36 5.54-12.73 5.54-3.72 0-10.77-.15-13.08-.17z" id="path888"/>
            <path id="path890" style="display:inline;opacity:1;mix-blend-mode:normal;fill:#545454;fill-opacity:1;stroke:none;stroke-width:.484445px;stroke-linecap:butt;stroke-linejoin:miter;stroke-opacity:1" d="M494.54.67c-2.33.13-16 2.34-18.1 2.72-2.11.4-2.45 2.47-2.45 2.47l-.62 8.13 80.57-.02s10.03 2.26 15.01 3.5c5.78 1.42 7.5-10.44 1.46-10.97-2.08-.18-71.1-5.57-75.87-5.83zm-1.28 4.63c2.73-.4 2.88 4.25.14 4.63a817.2 817.2 0 0 1-13.1 1.69c-1.97.23-2.25-4.21 0-4.54 4.35-.36 8.58-1.2 12.96-1.78z"/>
            <ellipse style="display:inline;opacity:1;mix-blend-mode:normal;fill:#363a41;fill-opacity:1;stroke:none;stroke-width:0;stroke-opacity:1" id="ellipse892" cx="544.46" cy="121.56" rx="15.52" ry="15.4"/>
            <ellipse style="display:inline;opacity:1;mix-blend-mode:normal;fill:#363a41;fill-opacity:1;stroke:none;stroke-width:0;stroke-opacity:1" id="ellipse894" cx="567.25" cy="12.84" rx="2.16" ry="2.14"/>
            <path style="fill:#fff0f0;fill-opacity:1;stroke:none;stroke-width:.103907;stroke-linecap:butt;stroke-linejoin:miter;stroke-miterlimit:4;stroke-dasharray:none;stroke-opacity:1" d="M469.43 24.95l.03-9.57 13.48.13-12.3 1.24z" id="path896"/>
            <path style="fill:#fff;fill-opacity:1;stroke:none;stroke-width:.265;stroke-linecap:butt;stroke-linejoin:miter;stroke-miterlimit:4;stroke-dasharray:none;stroke-opacity:1" d="M474.41 13.15l.46-6.88s.1-1.52 1.48-1.85c1.37-.33 17.86-2.75 17.86-2.75l26.27 1.74-26.32-.69-17.36 2.9s-.76.05-.83 1.1c-.06 1.05-1.56 6.43-1.56 6.43z" id="path898"/>
            <path style="fill:#fff;fill-opacity:1;stroke:none;stroke-width:.264583px;stroke-linecap:butt;stroke-linejoin:miter;stroke-opacity:1" d="M530.32 122.47s.54-20.84 22.11-13.1c-21.07-5.75-22.11 13.1-22.11 13.1z" id="path900"/>
            <path style="display:inline;fill:#fff;fill-opacity:1;stroke:none;stroke-width:.264583px;stroke-linecap:butt;stroke-linejoin:miter;stroke-opacity:1" d="M565.65 15.02c2.92.9 4.17-.6 4.11-3 1.38 2.96-1.86 4.98-4.1 3z" id="path902"/>
        </g>
    </g>
</svg>

