<?xml version="1.0" encoding="UTF-8" standalone="no"?>
<svg
   xmlns:dc="http://purl.org/dc/elements/1.1/"
   xmlns:cc="http://creativecommons.org/ns#"
   xmlns:rdf="http://www.w3.org/1999/02/22-rdf-syntax-ns#"
   xmlns:svg="http://www.w3.org/2000/svg"
   xmlns="http://www.w3.org/2000/svg"
   xmlns:sodipodi="http://sodipodi.sourceforge.net/DTD/sodipodi-0.dtd"
   xmlns:inkscape="http://www.inkscape.org/namespaces/inkscape"
   width="402.24"
   height="515.09"
   viewBox="0 0 106.43 136.28"
   version="1.1"
   id="svg8"
   sodipodi:docname="trash_can_brown.svg"
   inkscape:version="1.0.1 (3bc2e813f5, 2020-09-07)">
  <metadata
     id="metadata2046">
    <rdf:RDF>
      <cc:Work
         rdf:about="">
        <dc:format>image/svg+xml</dc:format>
        <dc:type
           rdf:resource="http://purl.org/dc/dcmitype/StillImage" />
        <dc:title></dc:title>
      </cc:Work>
    </rdf:RDF>
  </metadata>
  <sodipodi:namedview
     pagecolor="#ffffff"
     bordercolor="#666666"
     borderopacity="1"
     objecttolerance="10"
     gridtolerance="10"
     guidetolerance="10"
     inkscape:pageopacity="0"
     inkscape:pageshadow="2"
     inkscape:window-width="1920"
     inkscape:window-height="1051"
     id="namedview2044"
     showgrid="false"
     inkscape:zoom="0.85421961"
     inkscape:cx="216.40005"
     inkscape:cy="315.19208"
     inkscape:window-x="-9"
     inkscape:window-y="-9"
     inkscape:window-maximized="1"
     inkscape:current-layer="svg8" />
  <defs
     id="defs2">
    <rect
       x="54.27"
       y="38.26"
       width="115.89"
       height="18.88"
       id="rect900" />
    <rect
       x="284.73"
       y="43"
       width="68.05"
       height="17.65"
       id="rect894" />
  </defs>
  <g
     id="layer4"
     style="display:inline;opacity:1"
     transform="translate(-257.9 -1.41)">
    <path
       style="display:inline;opacity:1;mix-blend-mode:normal;fill:#925241;fill-opacity:1;stroke:none;stroke-width:0.434263px;stroke-linecap:butt;stroke-linejoin:miter;stroke-opacity:1"
       d="M280.68 54.54c-2.5 0-6.03.94-6.14-4.44-.1-5.38-4.51-81.05-4.51-81.05l-2.52-4.47-2.98-.83-1.06-13.2-.1-8.28 88.21-1.93 9.27-3.84s5.38.64 1.94 6.02-6.56 10.44-15.6 14.74c-.97 19.37-6.16 93.48-6.16 93.48s.65 3.8-3.33 3.8z"
       id="path2812-8"
       transform="translate(0 73.64)" />
    <path
       style="display:inline;opacity:1;mix-blend-mode:normal;fill:#7a4132;fill-opacity:1;stroke:none;stroke-width:0.485458px;stroke-linecap:butt;stroke-linejoin:miter;stroke-opacity:1"
       d="M257.9 27.07l.11-12.66 102.68.59-2.41 5.78s-66.09.83-74.56.92c-6.6.07-8.37 5.54-12.73 5.54-3.72 0-10.78-.15-13.09-.17z"
       id="path2814-1" />
    <path
       id="path2816-7"
       style="display:inline;opacity:1;mix-blend-mode:normal;fill:#925545;fill-opacity:1;stroke:none;stroke-width:0.484445px;stroke-linecap:butt;stroke-linejoin:miter;stroke-opacity:1"
       d="M284.67 1.41c-2.33.13-15.99 2.34-18.1 2.73-2.1.38-2.44 2.46-2.44 2.46l-.62 8.13 80.56-.01s10.03 2.25 15.02 3.48c5.77 1.43 7.5-10.43 1.45-10.96-2.07-.18-71.1-5.57-75.87-5.83zm-1.27 4.63c2.72-.4 2.88 4.26.13 4.63a817.2 817.2 0 0 1-13.1 1.69c-1.96.23-2.24-4.21 0-4.54 4.36-.35 8.58-1.2 12.97-1.78z" />
    <ellipse
       style="display:inline;opacity:1;mix-blend-mode:normal;fill:#363a41;fill-opacity:1;stroke:none;stroke-width:0;stroke-opacity:1"
       id="circle2818-0"
       cx="334.59"
       cy="122.3"
       rx="15.52"
       ry="15.4" />
    <ellipse
       style="display:inline;opacity:1;mix-blend-mode:normal;fill:#363a41;fill-opacity:1;stroke:none;stroke-width:0;stroke-opacity:1"
       id="circle2818-0-7"
       cx="357.38"
       cy="13.58"
       rx="2.16"
       ry="2.14" />
    <path
       style="fill:#fff0f0;fill-opacity:1;stroke:none;stroke-width:.103907;stroke-linecap:butt;stroke-linejoin:miter;stroke-miterlimit:4;stroke-dasharray:none;stroke-opacity:1"
       d="M259.57 25.7l.02-9.58 13.48.13-12.3 1.24z"
       id="path922" />
    <path
       style="fill:#fff;fill-opacity:1;stroke:none;stroke-width:.265;stroke-linecap:butt;stroke-linejoin:miter;stroke-miterlimit:4;stroke-dasharray:none;stroke-opacity:1"
       d="M264.55 13.9L265 7s.1-1.52 1.48-1.85c1.38-.33 17.86-2.75 17.86-2.75l26.28 1.74-26.33-.69-17.35 2.9s-.77.05-.83 1.1c-.07 1.05-1.56 6.44-1.56 6.44z"
       id="path924" />
    <path
       style="fill:#fff;fill-opacity:1;stroke:none;stroke-width:.264583px;stroke-linecap:butt;stroke-linejoin:miter;stroke-opacity:1"
       d="M320.46 123.22s.54-20.85 22.1-13.11c-21.06-5.75-22.1 13.1-22.1 13.1z"
       id="path926" />
    <path
       style="display:inline;fill:#fff;fill-opacity:1;stroke:none;stroke-width:.264583px;stroke-linecap:butt;stroke-linejoin:miter;stroke-opacity:1"
       d="M394.33 37.24c2.92.9 4.17-.6 4.1-3 1.39 2.96-1.85 4.98-4.1 3z"
       id="path928"
       transform="translate(-38.54 -21.48)" />
  </g>
</svg>
